<?xml version="1.0" encoding="UTF-8" standalone="no"?>
<!DOCTYPE svg PUBLIC "-//W3C//DTD SVG 1.1//EN" "http://www.w3.org/Graphics/SVG/1.1/DTD/svg11.dtd">
<svg width="100%" height="100%" viewBox="0 0 218 218" version="1.1" xmlns="http://www.w3.org/2000/svg" xmlns:xlink="http://www.w3.org/1999/xlink" xml:space="preserve" xmlns:serif="http://www.serif.com/" style="fill-rule:evenodd;clip-rule:evenodd;stroke-linejoin:round;stroke-miterlimit:2;">
    <g transform="matrix(-1,0,0,-1,236,258)">
        <path d="M127,41L32,81L32,216L127,257L222,81L127,41Z" style="fill:url(#_Radial1);"/>
    </g>
    <g transform="matrix(1,0,0,-1,-19,258)">
        <path d="M223,81L128,41L33,81L128,122L223,81Z" style="fill:url(#_Linear2);"/>
    </g>
    <g transform="matrix(1,0,0,-1,-19,258)">
        <path d="M33,81L128,257L128,122L33,81Z" style="fill:url(#_Linear3);"/>
    </g>
    <defs>
        <radialGradient id="_Radial1" cx="0" cy="0" r="1" gradientUnits="userSpaceOnUse" gradientTransform="matrix(-175,-0,-0,-198.947,127,122)"><stop offset="0" style="stop-color:rgb(255,76,224);stop-opacity:1"/><stop offset="1" style="stop-color:rgb(255,188,248);stop-opacity:1"/></radialGradient>
        <linearGradient id="_Linear2" x1="0" y1="0" x2="1" y2="0" gradientUnits="userSpaceOnUse" gradientTransform="matrix(-3.10114e-14,-81,-81,3.10114e-14,128,122)"><stop offset="0" style="stop-color:rgb(160,32,116);stop-opacity:1"/><stop offset="1" style="stop-color:rgb(66,0,44);stop-opacity:1"/></linearGradient>
        <linearGradient id="_Linear3" x1="0" y1="0" x2="1" y2="0" gradientUnits="userSpaceOnUse" gradientTransform="matrix(-5.16857e-14,135,-250.105,-9.57545e-14,128,122)"><stop offset="0" style="stop-color:rgb(174,36,160);stop-opacity:1"/><stop offset="1" style="stop-color:rgb(170,64,160);stop-opacity:1"/></linearGradient>
    </defs>
</svg>
