<?xml version="1.0" encoding="UTF-8" standalone="no"?>
<!DOCTYPE svg PUBLIC "-//W3C//DTD SVG 1.1//EN" "http://www.w3.org/Graphics/SVG/1.1/DTD/svg11.dtd">
<svg width="100%" height="100%" viewBox="0 0 238 238" version="1.1" xmlns="http://www.w3.org/2000/svg" xmlns:xlink="http://www.w3.org/1999/xlink" xml:space="preserve" xmlns:serif="http://www.serif.com/" style="fill-rule:evenodd;clip-rule:evenodd;stroke-linejoin:round;stroke-miterlimit:2;">
    <g transform="matrix(1,0,0,1,-9,-8)">
        <path d="M128,9L32,81L32,204L128,245L224,81L128,9Z" style="fill:url(#_Radial1);"/>
    </g>
    <g transform="matrix(1,0,0,1,-9,-8)">
        <path d="M224,81L128,122L128,9L224,81Z" style="fill:url(#_Linear2);"/>
    </g>
    <g transform="matrix(1,0,0,1,-9,-8)">
        <path d="M128,122L32,81L128,9L128,122Z" style="fill:url(#_Linear3);"/>
    </g>
    <g transform="matrix(1,0,0,1,-9,-8)">
        <path d="M128,122L128,245L224,81L128,122Z" style="fill:url(#_Linear4);"/>
    </g>
    <defs>
        <radialGradient id="_Radial1" cx="0" cy="0" r="1" gradientUnits="userSpaceOnUse" gradientTransform="matrix(-96,81,-99.5625,-118,128,122)"><stop offset="0" style="stop-color:rgb(0,192,160);stop-opacity:1"/><stop offset="1" style="stop-color:rgb(0,64,48);stop-opacity:1"/></radialGradient>
        <linearGradient id="_Linear2" x1="0" y1="0" x2="1" y2="0" gradientUnits="userSpaceOnUse" gradientTransform="matrix(96,72,-72,96,128,9)"><stop offset="0" style="stop-color:rgb(96,240,240);stop-opacity:1"/><stop offset="1" style="stop-color:rgb(160,255,255);stop-opacity:1"/></linearGradient>
        <linearGradient id="_Linear3" x1="0" y1="0" x2="1" y2="0" gradientUnits="userSpaceOnUse" gradientTransform="matrix(96,-15.5,18.2448,113,32,81)"><stop offset="0" style="stop-color:rgb(40,174,174);stop-opacity:1"/><stop offset="1" style="stop-color:rgb(64,212,212);stop-opacity:1"/></linearGradient>
        <linearGradient id="_Linear4" x1="0" y1="0" x2="1" y2="0" gradientUnits="userSpaceOnUse" gradientTransform="matrix(48,41,-70.0417,82,128,122)"><stop offset="0" style="stop-color:rgb(80,224,80);stop-opacity:1"/><stop offset="1" style="stop-color:rgb(86,186,56);stop-opacity:1"/></linearGradient>
    </defs>
</svg>
