<?xml version="1.0" encoding="utf-8"?>
<!-- Generator: Adobe Illustrator 27.8.1, SVG Export Plug-In . SVG Version: 6.00 Build 0)  -->
<svg version="1.1" id="Layer_1" xmlns:serif="http://www.serif.com/"
	 xmlns="http://www.w3.org/2000/svg" xmlns:xlink="http://www.w3.org/1999/xlink" x="0px" y="0px" viewBox="0 0 1000 1000"
	 style="enable-background:new 0 0 1000 1000;" xml:space="preserve">
<style type="text/css">
	.st0{fill-rule:evenodd;clip-rule:evenodd;fill:url(#SVGID_1_);}
	.st1{fill-rule:evenodd;clip-rule:evenodd;fill:url(#SVGID_00000003097558863680887810000012417991889156439441_);}
	.st2{fill-rule:evenodd;clip-rule:evenodd;fill:url(#SVGID_00000041991848654978599810000007851182829783692722_);}
	.st3{fill-rule:evenodd;clip-rule:evenodd;fill:url(#SVGID_00000101808746845883616710000004938029143669908365_);}
	.st4{display:none;}
	.st5{display:inline;fill:none;stroke:#000000;stroke-miterlimit:10;}
</style>
<g transform="matrix(1,0,0,1,-19,-20)">
	
		<radialGradient id="SVGID_1_" cx="38.0186" cy="-8.227539e-02" r="1.0316" fx="37.9843" fy="-8.508715e-02" gradientTransform="matrix(-440.367 376.1468 423.1651 495.4128 17252.9766 -13842.3564)" gradientUnits="userSpaceOnUse">
		<stop  offset="0" style="stop-color:#FD5F4D"/>
		<stop  offset="0.4944" style="stop-color:#F1171A"/>
		<stop  offset="0.983" style="stop-color:#AA011E"/>
	</radialGradient>
	<path class="st0" d="M519,451.2v564.2L78.6,827.3V263.1"/>
</g>
<g transform="matrix(1,0,0,1,-19,-20)">
	
		<linearGradient id="SVGID_00000096045377924651322810000012905951713260546206_" gradientUnits="userSpaceOnUse" x1="37.9856" y1="-8.213869e-02" x2="38.8552" y2="-0.5759" gradientTransform="matrix(-1.915316e-08 426.6055 413.2743 1.855463e-08 519.0347 -16186.4219)">
		<stop  offset="0" style="stop-color:#FED1CD"/>
		<stop  offset="0.5056" style="stop-color:#FEAAA7"/>
		<stop  offset="1" style="stop-color:#FE8E8A"/>
	</linearGradient>
	<path style="fill-rule:evenodd;clip-rule:evenodd;fill:url(#SVGID_00000096045377924651322810000012905951713260546206_);" d="
		M519,24.6v426.6L78.6,263.1L519,24.6z"/>
</g>
<g transform="matrix(1,0,0,1,-19,-20)">
	
		<radialGradient id="SVGID_00000067929152687229687930000001383098978554303655_" cx="593.8049" cy="389.2029" r="505.5857" gradientTransform="matrix(1 0 0 -1 -19 1020)" gradientUnits="userSpaceOnUse">
		<stop  offset="0" style="stop-color:#BD0302"/>
		<stop  offset="0.4944" style="stop-color:#9D0105"/>
		<stop  offset="1" style="stop-color:#69010E"/>
	</radialGradient>
	<path style="fill-rule:evenodd;clip-rule:evenodd;fill:url(#SVGID_00000067929152687229687930000001383098978554303655_);" d="
		M959.4,521.1v306.2L519,1015.4V704.7L959.4,521.1z"/>
</g>
<g transform="matrix(1,0,0,1,-19,-20)">
	
		<linearGradient id="SVGID_00000055709339006818004770000000029328478421263524_" gradientUnits="userSpaceOnUse" x1="38.9081" y1="-0.6548" x2="38.3045" y2="-8.138797e-02" gradientTransform="matrix(-440.3669 0 0 802.7523 17693.3105 827.2593)">
		<stop  offset="0" style="stop-color:#AB1D1D"/>
		<stop  offset="0.1872" style="stop-color:#D02D2D"/>
		<stop  offset="0.3436" style="stop-color:#FD5151"/>
		<stop  offset="1" style="stop-color:#FD6868"/>
	</linearGradient>
	<path style="fill-rule:evenodd;clip-rule:evenodd;fill:url(#SVGID_00000055709339006818004770000000029328478421263524_);" d="
		M959.4,521.1L519,335.3v369.4L959.4,521.1z"/>
</g>
<g class="st4">
	<polygon class="st5" points="500,21.4 -645.5,508.4 500,995.4 1645.5,508.4 	"/>
	<line class="st5" x1="1530.9" y1="459.7" x2="385.5" y2="946.7"/>
	<line class="st5" x1="1416.4" y1="411" x2="270.9" y2="898"/>
	<line class="st5" x1="1301.8" y1="362.3" x2="156.4" y2="849.3"/>
	<line class="st5" x1="1187.3" y1="313.6" x2="41.8" y2="800.6"/>
	<line class="st5" x1="1072.7" y1="264.9" x2="-72.7" y2="751.9"/>
	<line class="st5" x1="958.2" y1="216.2" x2="-187.3" y2="703.2"/>
	<line class="st5" x1="843.6" y1="167.5" x2="-301.8" y2="654.5"/>
	<line class="st5" x1="729.1" y1="118.8" x2="-416.4" y2="605.8"/>
	<line class="st5" x1="614.5" y1="70.1" x2="-530.9" y2="557.1"/>
	<line class="st5" x1="-530.9" y1="459.7" x2="614.5" y2="946.7"/>
	<line class="st5" x1="-416.4" y1="411" x2="729.1" y2="898"/>
	<line class="st5" x1="-301.8" y1="362.3" x2="843.6" y2="849.3"/>
	<line class="st5" x1="-187.3" y1="313.6" x2="958.2" y2="800.6"/>
	<line class="st5" x1="-72.7" y1="264.9" x2="1072.7" y2="751.9"/>
	<line class="st5" x1="41.8" y1="216.2" x2="1187.3" y2="703.2"/>
	<line class="st5" x1="156.4" y1="167.5" x2="1301.8" y2="654.5"/>
	<line class="st5" x1="270.9" y1="118.8" x2="1416.4" y2="605.8"/>
	<line class="st5" x1="385.5" y1="70.1" x2="1530.9" y2="557.1"/>
</g>
<g class="st4">
	<polygon class="st5" points="500,21.4 -645.5,508.4 500,995.4 1645.5,508.4 	"/>
	<line class="st5" x1="1530.9" y1="459.7" x2="385.5" y2="946.7"/>
	<line class="st5" x1="1416.4" y1="411" x2="270.9" y2="898"/>
	<line class="st5" x1="1301.8" y1="362.3" x2="156.4" y2="849.3"/>
	<line class="st5" x1="1187.3" y1="313.6" x2="41.8" y2="800.6"/>
	<line class="st5" x1="1072.7" y1="264.9" x2="-72.7" y2="751.9"/>
	<line class="st5" x1="958.2" y1="216.2" x2="-187.3" y2="703.2"/>
	<line class="st5" x1="843.6" y1="167.5" x2="-301.8" y2="654.5"/>
	<line class="st5" x1="729.1" y1="118.8" x2="-416.4" y2="605.8"/>
	<line class="st5" x1="614.5" y1="70.1" x2="-530.9" y2="557.1"/>
	<line class="st5" x1="-530.9" y1="459.7" x2="614.5" y2="946.7"/>
	<line class="st5" x1="-416.4" y1="411" x2="729.1" y2="898"/>
	<line class="st5" x1="-301.8" y1="362.3" x2="843.6" y2="849.3"/>
	<line class="st5" x1="-187.3" y1="313.6" x2="958.2" y2="800.6"/>
	<line class="st5" x1="-72.7" y1="264.9" x2="1072.7" y2="751.9"/>
	<line class="st5" x1="41.8" y1="216.2" x2="1187.3" y2="703.2"/>
	<line class="st5" x1="156.4" y1="167.5" x2="1301.8" y2="654.5"/>
	<line class="st5" x1="270.9" y1="118.8" x2="1416.4" y2="605.8"/>
	<line class="st5" x1="385.5" y1="70.1" x2="1530.9" y2="557.1"/>
</g>
</svg>
