<?xml version="1.0" encoding="UTF-8"?><svg id="a" xmlns="http://www.w3.org/2000/svg" width="104.29" height="102.67" viewBox="0 0 104.29 102.67"><ellipse cx="54.36" cy="51.34" rx="49.93" ry="51.34" style="stroke-width:0px;"/><ellipse cx="49.93" cy="51.34" rx="49.93" ry="51.34" style="fill:#ca0022; stroke-width:0px;"/><path d="m29.19,82.57l7.78-47.17c-3.41,3.35-8.24,6.04-14.5,8.05l1.21-6.99c3.96-1.99,7.93-4.82,11.89-8.48,3.02-2.76,5.18-5.47,6.48-8.14h3.58l-10.31,62.73h-6.14Z" style="stroke-width:0px;"/><path d="m48.92,61.67c0-7.87,1.23-15.48,3.69-22.82,2.46-7.34,5.43-12.61,8.91-15.79,2.62-2.41,5.44-3.62,8.45-3.62,3.73,0,6.89,1.74,9.49,5.22,2.6,3.48,3.9,8.62,3.9,15.41s-.83,13.34-2.49,19.9c-2.1,8.32-5.06,14.55-8.87,18.66-2.85,3.07-6.11,4.6-9.78,4.6s-6.78-1.81-9.39-5.43c-2.61-3.62-3.92-9-3.92-16.13Zm5.97,1.93c0,4.66.72,8.06,2.18,10.22,1.45,2.16,3.28,3.24,5.49,3.24s4.35-1.21,6.17-3.62c3.04-3.97,5.26-9.71,6.67-17.2,1.41-7.49,2.11-13.48,2.11-17.97s-.7-7.75-2.09-9.71-3.21-2.94-5.45-2.94c-2.43,0-4.59,1.19-6.46,3.58-2.65,3.41-4.75,8.95-6.3,16.63-1.55,7.68-2.32,13.6-2.32,17.78Z" style="stroke-width:0px;"/><path d="m26.2,82.57l7.78-47.17c-3.41,3.35-8.24,6.04-14.5,8.05l1.21-6.99c3.96-1.99,7.93-4.82,11.89-8.48,3.02-2.76,5.18-5.47,6.48-8.14h3.58l-10.31,62.73h-6.14Z" style="fill:#fff; stroke-width:0px;"/><path d="m45.93,61.67c0-7.87,1.23-15.48,3.69-22.82,2.46-7.34,5.43-12.61,8.91-15.79,2.62-2.41,5.44-3.62,8.45-3.62,3.73,0,6.89,1.74,9.49,5.22,2.6,3.48,3.9,8.62,3.9,15.41s-.83,13.34-2.49,19.9c-2.1,8.32-5.06,14.55-8.87,18.66-2.85,3.07-6.11,4.6-9.78,4.6s-6.78-1.81-9.39-5.43c-2.61-3.62-3.92-9-3.92-16.13Zm5.97,1.93c0,4.66.72,8.06,2.18,10.22,1.45,2.16,3.28,3.24,5.49,3.24s4.35-1.21,6.17-3.62c3.04-3.97,5.26-9.71,6.67-17.2,1.41-7.49,2.11-13.48,2.11-17.97s-.7-7.75-2.09-9.71-3.21-2.94-5.45-2.94c-2.43,0-4.59,1.19-6.46,3.58-2.65,3.41-4.75,8.95-6.3,16.63-1.55,7.68-2.32,13.6-2.32,17.78Z" style="fill:#fff; stroke-width:0px;"/></svg>