<?xml version="1.0" encoding="UTF-8" standalone="no"?>
<!DOCTYPE svg PUBLIC "-//W3C//DTD SVG 1.1//EN" "http://www.w3.org/Graphics/SVG/1.1/DTD/svg11.dtd">
<svg width="100%" height="100%" viewBox="0 0 218 218" version="1.1" xmlns="http://www.w3.org/2000/svg" xmlns:xlink="http://www.w3.org/1999/xlink" xml:space="preserve" xmlns:serif="http://www.serif.com/" style="fill-rule:evenodd;clip-rule:evenodd;stroke-linejoin:round;stroke-miterlimit:2;">
    <g transform="matrix(1,0,0,1,-19,-20)">
        <path d="M128,21L224,73L224,196L128,237L32,196L128,21Z" style="fill:url(#_Radial1);"/>
    </g>
    <g transform="matrix(1,0,0,1,-19,-20)">
        <path d="M224,73L128,114L128,21L224,73Z" style="fill:url(#_Linear2);"/>
    </g>
    <g transform="matrix(1,0,0,1,-19,-20)">
        <path d="M128,114L128,237L32,196L128,114Z" style="fill:url(#_Linear3);"/>
    </g>
    <g transform="matrix(1,0,0,1,-19,-20)">
        <path d="M128,114L128,21L32,196L128,114Z" style="fill:url(#_Linear4);"/>
    </g>
    <defs>
        <radialGradient id="_Radial1" cx="0" cy="0" r="1" gradientUnits="userSpaceOnUse" gradientTransform="matrix(96,82,-92.25,108,128,114)"><stop offset="0" style="stop-color:rgb(224,96,48);stop-opacity:1"/><stop offset="1" style="stop-color:rgb(174,72,32);stop-opacity:1"/></radialGradient>
        <linearGradient id="_Linear2" x1="0" y1="0" x2="1" y2="0" gradientUnits="userSpaceOnUse" gradientTransform="matrix(5.69461e-15,93,-90.0938,5.51665e-15,128,21)"><stop offset="0" style="stop-color:rgb(224,64,76);stop-opacity:1"/><stop offset="1" style="stop-color:rgb(230,116,120);stop-opacity:1"/></linearGradient>
        <linearGradient id="_Linear3" x1="0" y1="0" x2="1" y2="0" gradientUnits="userSpaceOnUse" gradientTransform="matrix(88,-67,85.8438,112.75,32,196)"><stop offset="0" style="stop-color:rgb(64,32,2);stop-opacity:1"/><stop offset="1" style="stop-color:rgb(160,80,20);stop-opacity:1"/></linearGradient>
        <linearGradient id="_Linear4" x1="0" y1="0" x2="1" y2="0" gradientUnits="userSpaceOnUse" gradientTransform="matrix(96,0,0,175,32,196)"><stop offset="0" style="stop-color:rgb(66,12,18);stop-opacity:1"/><stop offset="1" style="stop-color:rgb(104,24,30);stop-opacity:1"/></linearGradient>
    </defs>
</svg>
